{
    "asset": {
        "generator": "COLLADA2GLTF",
        "version": "2.0"
    },
    "scenes": [
        {
            "nodes": [
                0
            ]
        }
    ],
    "scene": 0,
    "nodes": [
        {
            "children": [
                2,
                1
            ],
            "name": "Y_UP"
        },
        {
            "matrix": [
                1.0,
                0.0,
                0.0,
                0.0,
                0.0,
                1.0,
                0.0,
                0.0,
                0.0,
                0.0,
                1.0,
                0.0,
                0.0,
                0.0,
                111.35000610351564,
                1.0
            ],
            "camera": 0,
            "name": "node-camera"
        },
        {
            "mesh": 0,
            "matrix": [
                1.0,
                0.0,
                0.0,
                0.0,
                0.0,
                1.0,
                0.0,
                0.0,
                0.0,
                0.0,
                1.0,
                0.0,
                0.06100000441074371,
                0.06599999964237213,
                -0.10900000482797624,
                1.0
            ],
            "name": "node-geom0"
        }
    ],
    "cameras": [
        {
            "perspective": {
                "aspectRatio": 1.3762999773025513,
                "yfov": 0.34906554222106936,
                "zfar": 134.9105987548828,
                "znear": 87.78910064697266
            },
            "type": "perspective",
            "name": "camera"
        }
    ],
    "meshes": [
        {
            "primitives": [
                {
                    "attributes": {
                        "COLOR_0": 1,
                        "NORMAL": 2,
                        "POSITION": 3
                    },
                    "indices": 0,
                    "mode": 4,
                    "material": 0
                }
            ],
            "name": "geom0"
        }
    ],
    "accessors": [
        {
            "bufferView": 0,
            "byteOffset": 0,
            "componentType": 5123,
            "count": 8616,
            "max": [
                1485
            ],
            "min": [
                0
            ],
            "type": "SCALAR"
        },
        {
            "bufferView": 1,
            "byteOffset": 0,
            "componentType": 5126,
            "count": 1486,
            "max": [
                0.19999998807907105,
                1.0,
                0.19999998807907105
            ],
            "min": [
                0.19999998807907105,
                1.0,
                0.19999998807907105
            ],
            "type": "VEC3"
        },
        {
            "bufferView": 1,
            "byteOffset": 17832,
            "componentType": 5126,
            "count": 1486,
            "max": [
                1.0353000164031985,
                1.0681999921798709,
                1.3459999561309817
            ],
            "min": [
                -1.0353000164031985,
                -1.0681999921798709,
                -1.3459999561309817
            ],
            "type": "VEC3"
        },
        {
            "bufferView": 1,
            "byteOffset": 35664,
            "componentType": 5126,
            "count": 1486,
            "max": [
                11.177000045776368,
                8.556599617004395,
                3.99399995803833
            ],
            "min": [
                -13.539400100708008,
                -8.873899459838868,
                -5.098599910736084
            ],
            "type": "VEC3"
        }
    ],
    "materials": [
        {
            "pbrMetallicRoughness": {
                "metallicFactor": 0.0
            },
            "name": "default-effect"
        }
    ],
    "bufferViews": [
        {
            "buffer": 0,
            "byteOffset": 53496,
            "byteLength": 17232,
            "target": 34963
        },
        {
            "buffer": 0,
            "byteOffset": 0,
            "byteLength": 53496,
            "byteStride": 12,
            "target": 34962
        }
    ],
    "buffers": [
        {
            "byteLength": 70728,
            "uri": "data:application/octet-stream;base64,"
        }
    ]
}
