<svg fill="#000000" width="700pt" height="700pt" viewBox="0 0 700 700" xmlns="http://www.w3.org/2000/svg">
    <path d="M350 630.002c-74.262 0-145.48-29.5-197.99-82.012a279.995 279.995 0 0 1 0-395.98 279.995 279.995 0 0 1 395.98 0A279.992 279.992 0 0 1 630.002 350a280.019 280.019 0 0 1-37.512 140A280.05 280.05 0 0 1 490 592.49a280.019 280.019 0 0 1-140 37.512zm0-520a240.014 240.014 0 0 0-169.71 70.293 240.004 240.004 0 0 0-70.293 169.71 240 240 0 0 0 70.293 169.71A240.004 240.004 0 0 0 350 590.008a240 240 0 0 0 169.71-70.293 240.004 240.004 0 0 0 70.293-169.71 240 240 0 0 0-70.293-169.71A240.004 240.004 0 0 0 350 110.002zm156 319-145-212a11.998 11.998 0 0 0-11-7.203 11.998 11.998 0 0 0-11 7.203l-145 212c-8 11-3 21 11 21h291c13 0 18-9 10-21z"/>
</svg>
