<?xml version="1.0" encoding="UTF-8" standalone="no"?>
<svg
   width="700pt"
   height="700pt"
   version="1.1"
   viewBox="0 0 700 700"
   id="svg21046"
   sodipodi:docname="noun-entrepreneurship-4726930.svg"
   xmlns:inkscape="http://www.inkscape.org/namespaces/inkscape"
   xmlns:sodipodi="http://sodipodi.sourceforge.net/DTD/sodipodi-0.dtd"
   xmlns:xlink="http://www.w3.org/1999/xlink"
   xmlns="http://www.w3.org/2000/svg"
   xmlns:svg="http://www.w3.org/2000/svg">
  <sodipodi:namedview
     id="namedview21048"
     pagecolor="#ffffff"
     bordercolor="#000000"
     borderopacity="0.25"
     inkscape:showpageshadow="2"
     inkscape:pageopacity="0.0"
     inkscape:pagecheckerboard="0"
     inkscape:deskcolor="#d1d1d1"
     inkscape:document-units="pt"
     showgrid="false" />
  <defs
     id="defs20944">
    <symbol
       id="u"
       overflow="visible">
      <path
         d="M 3.7812,-0.21875 C 3.58198,-0.125 3.37886,-0.05078 3.17182,0 2.96088,0.050781 2.74213,0.078125 2.51557,0.078125 c -0.6875,0 -1.2344,-0.1875 -1.6406,-0.5625 -0.39844,-0.38281 -0.59375,-0.90625 -0.59375,-1.5625 0,-0.65625 0.19531,-1.1758 0.59375,-1.5625 0.40625,-0.38281 0.95312,-0.57812 1.6406,-0.57812 0.22656,0 0.44531,0.027344 0.65625,0.078125 0.20703,0.054687 0.41016,0.13281 0.60938,0.23438 v 0.84375 C 3.58198,-3.16405 3.38276,-3.26562 3.18745,-3.32812 2.99995,-3.39062 2.80073,-3.42187 2.5937,-3.42187 c -0.375,0 -0.67188,0.125 -0.89062,0.375 -0.21875,0.24219 -0.32812,0.57422 -0.32812,1 0,0.41797 0.10938,0.75 0.32812,1 0.21875,0.24219 0.51562,0.35938 0.89062,0.35938 0.20703,0 0.40625,-0.03125 0.59375,-0.09375 0.19531,-0.0625 0.39453,-0.16016 0.59375,-0.29688 z"
         id="path20881" />
    </symbol>
    <symbol
       id="c"
       overflow="visible">
      <path
         d="M 2.7656,-2.25 C 2.679663,-2.289062 2.59372,-2.316406 2.49998,-2.328125 c -0.085938,-0.019531 -0.16797,-0.03125 -0.25,-0.03125 -0.25,0 -0.44922,0.085937 -0.59375,0.25 -0.13672,0.15625 -0.20312,0.38672 -0.20312,0.6875 V 2.5e-5 H 0.46873 v -3.0781 h 0.98438 v 0.5 c 0.13281,-0.19531 0.28125,-0.34375 0.4375,-0.4375 0.16406,-0.09375 0.36328,-0.14062 0.59375,-0.14062 h 0.10938 c 0.039062,0 0.097656,0.00781 0.17188,0.015625 z"
         id="path20884" />
    </symbol>
    <symbol
       id="a"
       overflow="visible">
      <path
         d="m 3.5469,-1.5469 v 0.28125 H 1.25 c 0.019531,0.23047 0.10156,0.40234 0.25,0.51562 0.14453,0.11719 0.34375,0.17188 0.59375,0.17188 0.20703,0 0.42188,-0.03125 0.64062,-0.09375 0.21874,-0.0625 0.44141,-0.15625 0.67188,-0.28125 v 0.76562 C 3.17578,-0.101592 2.94141,-0.03909 2.70313,-3e-5 2.47266,0.050751 2.24219,0.078095 2.01563,0.078095 c -0.5625,0 -1,-0.14062 -1.3125,-0.42188 -0.30469,-0.28125 -0.45312,-0.67969 -0.45312,-1.2031 0,-0.5 0.14844,-0.89062 0.45312,-1.1719 0.30078,-0.28906 0.71875,-0.4375 1.25,-0.4375 0.48828,0 0.875,0.14844 1.1562,0.4375 0.28906,0.29297 0.4375,0.68359 0.4375,1.1719 z m -1,-0.32812 c 0,-0.1875 -0.058594,-0.33594 -0.17188,-0.45312 -0.10547,-0.11328 -0.24609,-0.17188 -0.42188,-0.17188 -0.19922,0 -0.35938,0.054688 -0.48438,0.15625 -0.11719,0.10547 -0.18359,0.26172 -0.20312,0.46875 z"
         id="path20887" />
    </symbol>
    <symbol
       id="f"
       overflow="visible">
      <path
         d="m 1.8594,-1.3906 c -0.21094,0 -0.36719,0.039063 -0.46875,0.10938 -0.10547,0.074219 -0.15625,0.17969 -0.15625,0.3125 0,0.125 0.039063,0.22656 0.125,0.29688 0.082031,0.0625 0.19531,0.09375 0.34375,0.09375 0.1875,0 0.34375,-0.0625 0.46875,-0.1875 0.13281,-0.13281 0.20312,-0.30469 0.20312,-0.51562 v -0.10938 z m 1.5,-0.375 V 0 H 2.37502 v -0.45312 c -0.13672,0.1875 -0.28906,0.32422 -0.45312,0.40625 -0.16797,0.082031 -0.37109,0.125 -0.60938,0.125 -0.3125,0 -0.57031,-0.09375 -0.76562,-0.28125 -0.19922,-0.1875 -0.29688,-0.42578 -0.29688,-0.71875 0,-0.36328 0.11719,-0.62891 0.35938,-0.79688 0.25,-0.16406 0.64062,-0.25 1.1719,-0.25 h 0.59375 v -0.078125 c 0,-0.15625 -0.0625,-0.26953 -0.1875,-0.34375 -0.125,-0.070313 -0.32031,-0.10938 -0.57812,-0.10938 -0.21094,0 -0.40625,0.023438 -0.59375,0.0625 -0.17969,0.042969 -0.34375,0.10547 -0.5,0.1875 v -0.75 c 0.20703,-0.050781 0.41406,-0.085938 0.625,-0.10938 0.21875,-0.03125 0.42969,-0.046875 0.64062,-0.046875 0.5625,0 0.96094,0.10938 1.2031,0.32812 0.25,0.21875 0.375,0.57422 0.375,1.0625 z"
         id="path20890" />
    </symbol>
    <symbol
       id="b"
       overflow="visible">
      <path
         d="m 1.5469,-3.9531 v 0.875 h 1.0156 v 0.70312 H 1.5469 v 1.2969 c 0,0.14844 0.023437,0.24609 0.078125,0.29688 0.0625,0.054688 0.17578,0.078125 0.34375,0.078125 h 0.51562 V 4.5e-5 h -0.84375 c -0.39844,0 -0.67969,-0.078125 -0.84375,-0.23438 -0.15625,-0.16406 -0.23438,-0.44531 -0.23438,-0.84375 v -1.2969 h -0.48438 v -0.70312 h 0.48438 v -0.875 z"
         id="path20893" />
    </symbol>
    <symbol
       id="k"
       overflow="visible">
      <path
         d="M 2.5781,-2.6406 V -4.2812 H 3.56248 V 0 H 2.5781 v -0.45312 c -0.13672,0.1875 -0.28906,0.32422 -0.45312,0.40625 -0.16797,0.082031 -0.35547,0.125 -0.5625,0.125 -0.38672,0 -0.70312,-0.14844 -0.95312,-0.45312 -0.24219,-0.30078 -0.35938,-0.69141 -0.35938,-1.1719 0,-0.46875 0.11719,-0.85156 0.35938,-1.1562 0.25,-0.30078 0.56641,-0.45312 0.95312,-0.45312 0.20703,0 0.39453,0.042969 0.5625,0.125 0.16406,0.085938 0.31641,0.21484 0.45312,0.39062 z m -0.65625,2 c 0.20703,0 0.36719,-0.070313 0.48438,-0.21875 0.11328,-0.15625 0.17188,-0.38281 0.17188,-0.6875 0,-0.28906 -0.058594,-0.50781 -0.17188,-0.65625 -0.11719,-0.15625 -0.27734,-0.23438 -0.48438,-0.23438 -0.21094,0 -0.37109,0.078125 -0.48438,0.23438 -0.10547,0.14844 -0.15625,0.36719 -0.15625,0.65625 0,0.30469 0.050781,0.53125 0.15625,0.6875 0.11328,0.14844 0.27344,0.21875 0.48438,0.21875 z"
         id="path20896" />
    </symbol>
    <symbol
       id="j"
       overflow="visible">
      <path
         d="m 2.1094,-0.64062 c 0.21875,0 0.37891,-0.070313 0.48438,-0.21875 0.11328,-0.15625 0.17188,-0.38281 0.17188,-0.6875 0,-0.28906 -0.058594,-0.50781 -0.17188,-0.65625 C 2.48831,-2.35937 2.32816,-2.4375 2.1094,-2.4375 c -0.21094,0 -0.37109,0.078125 -0.48438,0.23438 -0.11719,0.14844 -0.17188,0.36719 -0.17188,0.65625 0,0.29297 0.054687,0.51562 0.17188,0.67188 0.11328,0.15625 0.27344,0.23438 0.48438,0.23438 z m -0.65625,-2 c 0.13281,-0.17578 0.28516,-0.30469 0.45312,-0.39062 0.16406,-0.082031 0.35938,-0.125 0.57812,-0.125 0.375,0 0.67969,0.15234 0.92188,0.45312 0.25,0.30469 0.375,0.6875 0.375,1.1562 0,0.48047 -0.125,0.87109 -0.375,1.1719 C 3.16408,-0.07033 2.85939,0.0781 2.48439,0.0781 2.26564,0.0781 2.07033,0.035131 1.90627,-0.0469 1.7383,-0.128931 1.58596,-0.26565 1.45315,-0.45315 V -3e-5 H 0.46877 v -4.2812 h 0.98438 z"
         id="path20899" />
    </symbol>
    <symbol
       id="e"
       overflow="visible">
      <path
         d="m 0.0625,-3.0781 h 1 l 0.82812,2.0938 0.70312,-2.0938 h 0.98438 l -1.2969,3.375 C 2.1445,0.64065 1.98825,0.87893 1.81247,1.01565 1.6445,1.14846 1.42185,1.21877 1.14059,1.21877 H 0.56247 V 0.56252 h 0.3125 c 0.16406,0 0.28516,-0.027344 0.35938,-0.078125 0.082031,-0.054687 0.14453,-0.14844 0.1875,-0.28125 L 1.437475,0.12502 Z"
         id="path20902" />
    </symbol>
    <symbol
       id="i"
       overflow="visible">
      <path
         d="m 0.51562,-4.1094 h 2.8594 v 0.79688 h -1.7969 v 0.76562 h 1.6875 v 0.79688 h -1.6875 v 0.95312 h 1.8594 V -2e-5 h -2.9219 z"
         id="path20905" />
    </symbol>
    <symbol
       id="h"
       overflow="visible">
      <path
         d="m 0.4375,-1.2031 v -1.875 h 1 v 0.29688 c 0,0.16797 -0.00781,0.38281 -0.015625,0.64062 v 0.5 c 0,0.25 0.00391,0.43359 0.015625,0.54688 0.019531,0.10547 0.046875,0.17969 0.078125,0.21875 0.039063,0.074219 0.09375,0.125 0.15625,0.15625 0.0625,0.03125 0.13281,0.046875 0.21875,0.046875 0.20703,0 0.36719,-0.078125 0.48438,-0.23438 0.125,-0.15625 0.1875,-0.375 0.1875,-0.65625 v -1.5156 h 0.98438 v 3.0781 h -0.98438 v -0.45312 c -0.15625,0.1875 -0.32031,0.32422 -0.48438,0.40625 -0.16797,0.082031 -0.35156,0.125 -0.54688,0.125 -0.35547,0 -0.625,-0.10938 -0.8125,-0.32812 -0.1875,-0.21874 -0.28125,-0.53516 -0.28125,-0.95312 z"
         id="path20908" />
    </symbol>
    <symbol
       id="g"
       overflow="visible">
      <path
         d="m 2.9688,-2.9844 v 0.79688 C 2.83208,-2.28127 2.69536,-2.34768 2.56255,-2.39064 2.42583,-2.429703 2.28521,-2.45314 2.14067,-2.45314 c -0.27344,0 -0.48438,0.085937 -0.64062,0.25 -0.15625,0.15625 -0.23438,0.375 -0.23438,0.65625 0,0.29297 0.078125,0.52344 0.23438,0.6875 0.15625,0.15625 0.36719,0.23438 0.64062,0.23438 0.15625,0 0.30078,-0.019531 0.4375,-0.0625 0.14453,-0.050781 0.27344,-0.11719 0.39062,-0.20312 v 0.79688 c -0.15625,0.0625 -0.3125,0.10156 -0.46875,0.125 -0.15625,0.03125 -0.32031,0.046875 -0.48438,0.046875 -0.55469,0 -0.98438,-0.14062 -1.2969,-0.42188 -0.3125,-0.28906 -0.46875,-0.69141 -0.46875,-1.2031 0,-0.5 0.15625,-0.89062 0.46875,-1.1719 0.3125,-0.28906 0.74219,-0.4375 1.2969,-0.4375 0.16406,0 0.32812,0.015625 0.48438,0.046875 0.15625,0.023437 0.3125,0.0625 0.46875,0.125 z"
         id="path20911" />
    </symbol>
    <symbol
       id="t"
       overflow="visible">
      <path
         d="M 0.46875,-4.2812 H 1.45313 V 0 H 0.46875 Z"
         id="path20914" />
    </symbol>
    <symbol
       id="s"
       overflow="visible">
      <path
         d="m 1.4531,-0.45312 v 1.625 H 0.46872 v -4.25 H 1.4531 v 0.4375 c 0.13281,-0.17578 0.28516,-0.30469 0.45312,-0.39062 0.16406,-0.082031 0.35938,-0.125 0.57812,-0.125 0.375,0 0.67969,0.15234 0.92188,0.45312 0.25,0.30469 0.375,0.6875 0.375,1.1562 0,0.48047 -0.125,0.87109 -0.375,1.1719 C 3.16403,-0.07033 2.85934,0.0781 2.48434,0.0781 2.26559,0.0781 2.07028,0.035131 1.90622,-0.0469 1.73825,-0.128931 1.58591,-0.26565 1.4531,-0.45315 Z m 0.65625,-1.9844 c -0.21094,0 -0.37109,0.078125 -0.48438,0.23438 -0.11719,0.14844 -0.17188,0.36719 -0.17188,0.65625 0,0.29297 0.054687,0.51562 0.17188,0.67188 0.11328,0.15625 0.27344,0.23438 0.48438,0.23438 0.21875,0 0.37891,-0.070313 0.48438,-0.21875 0.11328,-0.15625 0.17188,-0.38281 0.17188,-0.6875 0,-0.28906 -0.058594,-0.50781 -0.17188,-0.65625 C 2.48826,-2.35938 2.32811,-2.43751 2.10935,-2.43751 Z"
         id="path20917" />
    </symbol>
    <symbol
       id="r"
       overflow="visible">
      <path
         d="m 2.5,-4.2812 v 0.64062 H 1.95312 c -0.13672,0 -0.23438,0.027344 -0.29688,0.078125 -0.054688,0.054688 -0.078125,0.14062 -0.078125,0.26562 v 0.21875 h 0.84375 v 0.70312 h -0.84375 v 2.375 h -0.98438 v -2.375 h -0.48438 v -0.70312 h 0.48438 v -0.21875 c 0,-0.33203 0.09375,-0.57812 0.28125,-0.73438 0.1875,-0.16406 0.47656,-0.25 0.875,-0.25 z"
         id="path20920" />
    </symbol>
    <symbol
       id="d"
       overflow="visible">
      <path
         d="m 1.9375,-2.4531 c -0.21875,0 -0.38672,0.078125 -0.5,0.23438 -0.11719,0.15625 -0.17188,0.38281 -0.17188,0.67188 0,0.30469 0.054687,0.53125 0.17188,0.6875 0.11328,0.15625 0.28125,0.23438 0.5,0.23438 0.21875,0 0.38281,-0.078125 0.5,-0.23438 0.11328,-0.15625 0.17188,-0.38281 0.17188,-0.6875 0,-0.28906 -0.058594,-0.51562 -0.17188,-0.67188 -0.11719,-0.15625 -0.28125,-0.23438 -0.5,-0.23438 z m 0,-0.70312 c 0.53125,0 0.94141,0.14844 1.2344,0.4375 0.30078,0.28125 0.45312,0.67188 0.45312,1.1719 0,0.51172 -0.15234,0.91406 -0.45312,1.2031 -0.29297,0.28125 -0.70312,0.42188 -1.2344,0.42188 -0.53128,0 -0.94922,-0.14062 -1.25,-0.42188 C 0.39453,-0.63278 0.25,-1.03513 0.25,-1.54682 c 0,-0.5 0.14453,-0.89062 0.4375,-1.1719 0.30078,-0.28906 0.71875,-0.4375 1.25,-0.4375 z"
         id="path20923" />
    </symbol>
    <symbol
       id="q"
       overflow="visible">
      <path
         d="m 3.3281,-2.5781 c 0.125,-0.1875 0.26953,-0.32812 0.4375,-0.42188 0.17578,-0.10156 0.36719,-0.15625 0.57812,-0.15625 0.35156,0 0.625,0.10938 0.8125,0.32812 0.1875,0.21874 0.28125,0.53906 0.28125,0.95312 V 1e-5 h -1 v -1.6094 -0.0625 -0.125 c 0,-0.21875 -0.03125,-0.375 -0.09375,-0.46875 -0.0625,-0.10156 -0.16797,-0.15625 -0.3125,-0.15625 -0.1875,0 -0.33594,0.078125 -0.4375,0.23438 C 3.49997,-2.03126 3.4531,-1.8047 3.4531,-1.51563 V -3e-5 h -1 v -1.6094 c 0,-0.34375 -0.03125,-0.5625 -0.09375,-0.65625 -0.054687,-0.10156 -0.15625,-0.15625 -0.3125,-0.15625 -0.1875,0 -0.33594,0.078125 -0.4375,0.23438 C 1.50388,-2.0313 1.4531,-1.80474 1.4531,-1.51567 V -7e-5 H 0.46872 v -3.0781 H 1.4531 v 0.4375 c 0.125,-0.16406 0.26562,-0.28906 0.42188,-0.375 0.15625,-0.09375 0.32812,-0.14062 0.51562,-0.14062 0.21875,0 0.40625,0.054688 0.5625,0.15625 0.16406,0.10547 0.28906,0.24609 0.375,0.42188 z"
         id="path20926" />
    </symbol>
    <symbol
       id="p"
       overflow="visible">
      <path
         d="M 3.5781,-1.875 V 0 h -1 v -1.4375 c 0,-0.26953 -0.00781,-0.45312 -0.015625,-0.54688 -0.011719,-0.10156 -0.03125,-0.17969 -0.0625,-0.23438 -0.03125,-0.0625 -0.085938,-0.10938 -0.15625,-0.14062 -0.0625,-0.039063 -0.13672,-0.0625 -0.21875,-0.0625 -0.21094,0 -0.375,0.085937 -0.5,0.25 -0.11719,0.15625 -0.17188,0.375 -0.17188,0.65625 V -3e-5 h -0.98438 v -4.2812 h 0.98438 v 1.6406 c 0.15625,-0.17578 0.31641,-0.30469 0.48438,-0.39062 0.16406,-0.082031 0.34766,-0.125 0.54688,-0.125 0.35156,0 0.625,0.10938 0.8125,0.32812 0.1875,0.21874 0.28125,0.53906 0.28125,0.95312 z"
         id="path20929" />
    </symbol>
    <symbol
       id="o"
       overflow="visible">
      <path
         d="m 0.51562,-4.1094 h 1.1875 l 1.5,2.8125 v -2.8125 h 1 V 0 h -1.1875 l -1.5,-2.8281 V 0 h -1 z"
         id="path20932" />
    </symbol>
    <symbol
       id="n"
       overflow="visible">
      <path
         d="M 3.5781,-1.875 V 0 h -1 v -1.4375 c 0,-0.26953 -0.00781,-0.45312 -0.015625,-0.54688 -0.011719,-0.10156 -0.03125,-0.17969 -0.0625,-0.23438 -0.03125,-0.0625 -0.085938,-0.10938 -0.15625,-0.14062 -0.0625,-0.039063 -0.13672,-0.0625 -0.21875,-0.0625 -0.21094,0 -0.375,0.085937 -0.5,0.25 -0.11719,0.15625 -0.17188,0.375 -0.17188,0.65625 V -3e-5 h -0.98438 v -3.0781 h 0.98438 v 0.4375 c 0.15625,-0.17578 0.31641,-0.30469 0.48438,-0.39062 0.16406,-0.082031 0.34766,-0.125 0.54688,-0.125 0.35156,0 0.625,0.10938 0.8125,0.32812 0.1875,0.21874 0.28125,0.53906 0.28125,0.95312 z"
         id="path20935" />
    </symbol>
    <symbol
       id="m"
       overflow="visible">
      <path
         d="m 0.51562,-4.1094 h 1.7656 c 0.51953,0 0.92188,0.11719 1.2031,0.34375 0.28125,0.23047 0.42188,0.5625 0.42188,1 0,0.42969 -0.14062,0.76172 -0.42188,1 -0.28125,0.23047 -0.68359,0.34375 -1.2031,0.34375 H 1.5781 V 0 H 0.5156 Z m 1.0625,0.76562 v 1.1562 h 0.59375 c 0.19531,0 0.35156,-0.050781 0.46875,-0.15625 0.11328,-0.10156 0.17188,-0.24219 0.17188,-0.42188 0,-0.1875 -0.058594,-0.32812 -0.17188,-0.42188 C 2.52343,-3.28915 2.36718,-3.34384 2.17187,-3.34384 Z"
         id="path20938" />
    </symbol>
    <symbol
       id="l"
       overflow="visible">
      <path
         d="m 0.46875,-3.0781 h 0.98438 v 3.0156 c 0,0.41406 -0.10156,0.73438 -0.29688,0.95312 C 0.95703,1.10937 0.67187,1.21874 0.29687,1.21874 H -0.18751 V 0.56249 h 0.17188 c 0.1875,0 0.3125,-0.042969 0.375,-0.125 0.070313,-0.085938 0.10938,-0.25 0.10938,-0.5 z m 0,-1.2031 h 0.98438 v 0.79688 H 0.46875 Z"
         id="path20941" />
    </symbol>
    <clipPath
       clipPathUnits="userSpaceOnUse"
       id="clipPath22258">
      <rect
         style="fill:#000000;fill-opacity:0;stroke:#000000;stroke-width:0"
         id="rect22260"
         width="759.32202"
         height="726.69495"
         x="-32.627121"
         y="-157.20338"
         ry="0" />
    </clipPath>
  </defs>
  <g
     id="g21044"
     clip-path="url(#clipPath22258)"
     transform="translate(-0.0017965,65.254219)">
    <path
       d="m 340.97,0 h 18.066 V 36.129 H 340.97 Z"
       id="path20946" />
    <path
       d="m 215.88,23.168 12.773,-12.773 51.094,51.094 -12.773,12.773 z"
       id="path20948" />
    <path
       d="m 169.36,135.48 h 72.258 v 18.066 H 169.36 Z"
       id="path20950" />
    <path
       d="m 458.39,135.48 h 72.258 v 18.066 H 458.39 Z"
       id="path20952" />
    <path
       d="M 420.26,61.504 471.354,10.41 484.127,23.183 433.033,74.277 Z"
       id="path20954" />
    <path
       d="m 630,263.03 c 0,-15.547 -12.648,-28.191 -28.191,-28.191 -7.5312,0 -14.609,2.9336 -19.934,8.2578 l -6.0703,6.0625 -55.344,55.344 -37.988,-25.328 c -8.0586,-5.3711 -17.438,-8.2109 -27.121,-8.2109 l -60.191,0.004 v -49.852 l 12.008,-9.6055 c 21.07,-16.859 33.156,-42 33.156,-68.98 0,-48.711004 -39.629,-88.336004 -88.336,-88.336004 h -3.9727 c -48.711,0 -88.34,39.625 -88.34,88.336004 0,26.98 12.086,52.125 33.152,68.98 l 12.012,9.6055 v 49.852 h -60.191 c -9.6836,0 -19.062,2.8398 -27.121,8.2109 l -37.988,25.328 -48.957,-48.957 -6.3867,-6.3906 -6.0664,-6.0664 c -5.3242,-5.3203 -12.406,-8.2539 -19.938,-8.2539 -15.543,0 -28.191,12.645 -28.191,28.191 0,7.5312 2.9336,14.609 8.2578,19.934 l 6.6211,6.6211 c -1.375,2.5781 -2.1055,5.4727 -2.1055,8.4766 0,4.8242 1.8789,9.3633 5.293,12.773 l 54.801,54.801 c 8.8438,8.8477 20.602,13.719 33.109,13.719 9.2773,0 18.258,-2.7188 25.973,-7.8633 l 30.633,-20.422 v 100.54 h 18.066 l -0.004,-135.48 h -18.066 v 13.23 l -40.652,27.102 c -4.7383,3.1602 -10.254,4.8281 -15.953,4.8281 -7.6836,0 -14.906,-2.9922 -20.336,-8.4219 l -54.797,-54.801 23.355,-23.355 45.16,45.16 v 23.355 h 18.066 v -22.262 l 40.129,-26.754 c 5.082,-3.3867 10.996,-5.1797 17.102,-5.1797 h 44.344 l 20.41,71.434 40.594,-40.594 40.598,40.598 20.41,-71.438 h 44.344 c 6.1055,0 12.02,1.7891 17.102,5.1797 l 40.129,26.75 v 22.266 h 18.066 v -23.355 l 45.16,-45.16 23.352,23.355 -54.801,54.801 c -5.4336,5.4336 -12.652,8.4219 -20.336,8.4219 -5.6953,0 -11.215,-1.668 -15.953,-4.8281 l -40.652,-27.102 v -13.23 h -18.066 v 135.48 h 18.066 v -100.54 l 30.629,20.418 c 7.7188,5.1445 16.699,7.8633 25.973,7.8633 12.508,0 24.266,-4.8711 33.109,-13.715 l 54.801,-54.801 c 3.4102,-3.4102 5.293,-7.9492 5.293,-12.773 0,-3.0039 -0.73047,-5.8984 -2.1055,-8.4766 l 6.6211,-6.6211 c 5.3281,-5.3242 8.2617,-12.402 8.2617,-19.934 z m -532.9,13.227 -6.0664,-6.0664 c -1.9141,-1.9102 -2.9648,-4.4531 -2.9648,-7.1602 0,-5.5859 4.543,-10.129 10.129,-10.129 2.707,0 5.2461,1.0547 7.1602,2.9648 l 6.0625,6.0664 z m 207.02,-78.855 c -16.758,-13.41 -26.371,-33.406 -26.371,-54.871 0,-38.75 31.523,-70.273 70.27,-70.273 h 3.9727 c 38.75,0 70.273,31.523 70.273,70.273 0,21.465 -9.6133,41.465 -26.371,54.875 l -12.926,10.336 h -23.93 v -37.684 c 10.512,-3.7266 18.066,-13.77 18.066,-25.543 0,-14.941 -12.156,-27.098 -27.098,-27.098 -14.942,0 -27.098,12.156 -27.098,27.098 0,11.773 7.5508,21.812 18.066,25.543 v 37.684 h -23.93 z m 72.984,28.402 v 18.066 h -54.195 v -18.066 z m -36.129,-81.289 c 0,-4.9805 4.0508,-9.0312 9.0312,-9.0312 4.9804,0 9.0312,4.0508 9.0312,9.0312 0,4.9804 -4.0508,9.0312 -9.0312,9.0312 -4.9804,0 -9.0312,-4.0508 -9.0312,-9.0312 z m -22.629,181.47 -10.559,-36.953 h 3.0781 l 25.387,19.043 z m 4.5625,-50.5 v -13.547 h 54.195 v 13.547 l -27.098,20.324 z m 58.758,50.5 -17.91,-17.91 25.391,-19.043 h 3.0781 z m 227.31,-55.793 -6.0664,6.0664 -14.32,-14.324 6.0664,-6.0664 c 1.9141,-1.9141 4.457,-2.9648 7.1602,-2.9648 5.5859,0 10.129,4.543 10.129,10.129 -0.004,2.707 -1.0547,5.25 -2.9688,7.1602 z"
       id="path20956" />
    <path
       d="m 304.84,451.61 h 18.066 v 18.066 H 304.84 Z"
       id="path20958" />
    <path
       d="m 340.97,451.61 h 18.066 v 18.066 H 340.97 Z"
       id="path20960" />
    <path
       d="m 377.1,451.61 h 18.066 v 18.066 H 377.1 Z"
       id="path20962" />
    <path
       d="m 304.84,487.74 h 18.066 v 18.066 H 304.84 Z"
       id="path20964" />
    <path
       d="m 340.97,487.74 h 18.066 v 18.066 H 340.97 Z"
       id="path20966" />
    <path
       d="m 377.1,487.74 h 18.066 v 18.066 H 377.1 Z"
       id="path20968" />
    <path
       d="m 485.48,469.68 h -54.195 v -54.195 h -18.066 v -36.129 l -126.45,0.004 v 36.129 h -18.066 v 54.195 h -54.195 v -72.258 l -108.38,-0.004 v 162.58 h 18.066 v -108.39 h 72.258 v 18.066 l -36.129,-0.004 v 90.324 h 18.066 V 487.74 h 90.324 v 72.258 h 18.066 l -0.008,-126.45 h 126.45 v 126.45 h 18.066 V 487.74 h 90.324 v 72.258 h 18.066 v -90.324 h -36.129 v -18.066 h 72.258 v 108.39 h 18.066 l -0.008,-162.58 H 485.474 Z M 196.45,433.551 h -72.258 v -18.066 h 72.258 z m 198.71,-18.062 h -90.324 v -18.066 h 90.324 z m 108.39,0 h 72.258 v 18.066 H 503.55 Z"
       id="path20970" />
    <path
       d="m 449.36,560 h 18.062 v -36.129 h 18.066 V 560 h 18.062 v -54.195 h -54.191 z"
       id="path20972" />
    <path
       d="m 196.45,560 h 18.062 v -36.129 h 18.066 V 560 h 18.062 v -54.195 h -54.191 z"
       id="path20974" />
    <use
       x="70"
       y="576.93359"
       xlink:href="#u"
       id="use20976" />
    <use
       x="74.144531"
       y="576.93359"
       xlink:href="#c"
       id="use20978" />
    <use
       x="76.925781"
       y="576.93359"
       xlink:href="#a"
       id="use20980" />
    <use
       x="80.753906"
       y="576.93359"
       xlink:href="#f"
       id="use20982" />
    <use
       x="84.566406"
       y="576.93359"
       xlink:href="#b"
       id="use20984" />
    <use
       x="87.261719"
       y="576.93359"
       xlink:href="#a"
       id="use20986" />
    <use
       x="91.09375"
       y="576.93359"
       xlink:href="#k"
       id="use20988" />
    <use
       x="97.097656"
       y="576.93359"
       xlink:href="#j"
       id="use20990" />
    <use
       x="101.14062"
       y="576.93359"
       xlink:href="#e"
       id="use20992" />
    <use
       x="106.78516"
       y="576.93359"
       xlink:href="#i"
       id="use20994" />
    <use
       x="110.64062"
       y="576.93359"
       xlink:href="#h"
       id="use20996" />
    <use
       x="114.66016"
       y="576.93359"
       xlink:href="#g"
       id="use20998" />
    <use
       x="118.00781"
       y="576.93359"
       xlink:href="#f"
       id="use21000" />
    <use
       x="121.81641"
       y="576.93359"
       xlink:href="#t"
       id="use21002" />
    <use
       x="123.75"
       y="576.93359"
       xlink:href="#e"
       id="use21004" />
    <use
       x="127.42969"
       y="576.93359"
       xlink:href="#s"
       id="use21006" />
    <use
       x="70"
       y="582.58203"
       xlink:href="#r"
       id="use21008" />
    <use
       x="72.457031"
       y="582.58203"
       xlink:href="#c"
       id="use21010" />
    <use
       x="75.238281"
       y="582.58203"
       xlink:href="#d"
       id="use21012" />
    <use
       x="79.117188"
       y="582.58203"
       xlink:href="#q"
       id="use21014" />
    <use
       x="86.964844"
       y="582.58203"
       xlink:href="#b"
       id="use21016" />
    <use
       x="89.664062"
       y="582.58203"
       xlink:href="#p"
       id="use21018" />
    <use
       x="93.683594"
       y="582.58203"
       xlink:href="#a"
       id="use21020" />
    <use
       x="99.476562"
       y="582.58203"
       xlink:href="#o"
       id="use21022" />
    <use
       x="104.20312"
       y="582.58203"
       xlink:href="#d"
       id="use21024" />
    <use
       x="108.07812"
       y="582.58203"
       xlink:href="#h"
       id="use21026" />
    <use
       x="112.09766"
       y="582.58203"
       xlink:href="#n"
       id="use21028" />
    <use
       x="118.08203"
       y="582.58203"
       xlink:href="#m"
       id="use21030" />
    <use
       x="122.21875"
       y="582.58203"
       xlink:href="#c"
       id="use21032" />
    <use
       x="125.00391"
       y="582.58203"
       xlink:href="#d"
       id="use21034" />
    <use
       x="128.88281"
       y="582.58203"
       xlink:href="#l"
       id="use21036" />
    <use
       x="130.81641"
       y="582.58203"
       xlink:href="#a"
       id="use21038" />
    <use
       x="134.64453"
       y="582.58203"
       xlink:href="#g"
       id="use21040" />
    <use
       x="137.99219"
       y="582.58203"
       xlink:href="#b"
       id="use21042" />
  </g>
</svg>
