<?xml version="1.0" encoding="UTF-8" standalone="no"?>
<svg
   width="700pt"
   height="700pt"
   version="1.1"
   viewBox="0 0 700 700"
   id="svg17846"
   sodipodi:docname="noun-biotechnology-3384819.svg"
   inkscape:export-filename="noun-biotechnology-2.png"
   inkscape:export-xdpi="96"
   inkscape:export-ydpi="96"
   xmlns:inkscape="http://www.inkscape.org/namespaces/inkscape"
   xmlns:sodipodi="http://sodipodi.sourceforge.net/DTD/sodipodi-0.dtd"
   xmlns:xlink="http://www.w3.org/1999/xlink"
   xmlns="http://www.w3.org/2000/svg"
   xmlns:svg="http://www.w3.org/2000/svg">
  <sodipodi:namedview
     id="namedview17848"
     pagecolor="#ffffff"
     bordercolor="#000000"
     borderopacity="0.25"
     inkscape:showpageshadow="2"
     inkscape:pageopacity="0.0"
     inkscape:pagecheckerboard="0"
     inkscape:deskcolor="#d1d1d1"
     inkscape:document-units="pt"
     showgrid="false" />
  <defs
     id="defs17794">
    <symbol
       id="o"
       overflow="visible">
      <path
         d="m 29.312,-1.75 c -1.5117,0.78125 -3.0898,1.3711 -4.7344,1.7656 -1.6367,0.40625 -3.3398,0.60938 -5.1094,0.60938 -5.3125,0 -9.5273,-1.4844 -12.641,-4.4531 -3.1055,-2.9688 -4.6562,-7 -4.6562,-12.094 0,-5.094 1.5508,-9.125 4.6562,-12.094 3.1133,-2.9688 7.3281,-4.4531 12.641,-4.4531 1.7695,0 3.4727,0.19922 5.1094,0.59375 1.6445,0.39844 3.2227,0.99219 4.7344,1.7812 v 6.5938 c -1.5312,-1.0391 -3.0391,-1.8008 -4.5156,-2.2812 -1.4805,-0.48828 -3.0391,-0.73438 -4.6719,-0.73438 -2.9375,0 -5.2461,0.94531 -6.9219,2.8281 -1.6797,1.875 -2.5156,4.4648 -2.5156,7.7656 0,3.293 0.83594,5.8828 2.5156,7.7656 1.6758,1.875 3.9844,2.8125 6.9219,2.8125 1.6328,0 3.1914,-0.23828 4.6719,-0.71875 1.4766,-0.48828 2.9844,-1.2539 4.5156,-2.2969 z"
         id="path17749" />
    </symbol>
    <symbol
       id="j"
       overflow="visible">
      <path
         d="m 21.453,-17.406 c -0.67969,-0.3125 -1.3516,-0.53906 -2.0156,-0.6875 -0.65625,-0.15625 -1.3203,-0.23438 -1.9844,-0.23438 -1.9688,0 -3.4844,0.63281 -4.5469,1.8906 -1.0547,1.2617 -1.5781,3.0703 -1.5781,5.4219 V 6.2e-4 H 3.6718 v -23.922 h 7.6562 v 3.9219 c 0.97656,-1.5625 2.1016,-2.7031 3.375,-3.4219 1.2812,-0.71875 2.8125,-1.0781 4.5938,-1.0781 0.25,0 0.52344,0.01172 0.82812,0.03125 0.30078,0.02344 0.73438,0.07031 1.2969,0.14062 z"
         id="path17752" />
    </symbol>
    <symbol
       id="b"
       overflow="visible">
      <path
         d="m 27.562,-12.031 v 2.1875 H 9.671 c 0.1875,1.793 0.83203,3.1367 1.9375,4.0312 1.1133,0.89844 2.6719,1.3438 4.6719,1.3438 1.6016,0 3.25,-0.23438 4.9375,-0.70312 1.6875,-0.47656 3.4219,-1.2031 5.2031,-2.1719 v 5.8906 c -1.8047,0.6875 -3.6094,1.2031 -5.4219,1.5469 -1.8125,0.35156 -3.6211,0.53125 -5.4219,0.53125 -4.3359,0 -7.7031,-1.0977 -10.109,-3.2969 -2.3984,-2.207 -3.5938,-5.2969 -3.5938,-9.2656 0,-3.9062 1.1758,-6.9727 3.5312,-9.2031 2.3633,-2.2383 5.6094,-3.3594 9.7344,-3.3594 3.7578,0 6.7695,1.1367 9.0312,3.4062 2.2578,2.2617 3.3906,5.2812 3.3906,9.0625 z m -7.8594,-2.5312 c 0,-1.457 -0.42969,-2.6289 -1.2812,-3.5156 -0.84375,-0.89453 -1.9492,-1.3438 -3.3125,-1.3438 -1.4922,0 -2.6992,0.41797 -3.625,1.25 -0.91797,0.83594 -1.4922,2.0391 -1.7188,3.6094 z"
         id="path17755" />
    </symbol>
    <symbol
       id="a"
       overflow="visible">
      <path
         d="m 14.391,-10.766 c -1.5938,0 -2.793,0.27344 -3.5938,0.8125 -0.80469,0.54297 -1.2031,1.3398 -1.2031,2.3906 0,0.96875 0.32031,1.7305 0.96875,2.2812 0.64453,0.54297 1.5469,0.8125 2.7031,0.8125 1.4375,0 2.6445,-0.51562 3.625,-1.5469 0.98828,-1.0312 1.4844,-2.3203 1.4844,-3.875 v -0.875 z m 11.688,-2.8906 V -6e-4 h -7.7031 v -3.5469 c -1.0312,1.4492 -2.1875,2.5078 -3.4688,3.1719 -1.2813,0.6641 -2.8398,1 -4.6719,1 -2.4805,0 -4.4961,-0.72266 -6.0469,-2.1719 -1.543,-1.4453 -2.3125,-3.3203 -2.3125,-5.625 0,-2.8125 0.96094,-4.8672 2.8906,-6.1719 1.9375,-1.3125 4.9688,-1.9688 9.0938,-1.9688 h 4.5156 v -0.60938 c 0,-1.207 -0.48047,-2.0938 -1.4375,-2.6562 -0.94922,-0.5625 -2.4375,-0.84375 -4.4688,-0.84375 -1.6367,0 -3.1562,0.16797 -4.5625,0.5 -1.4062,0.32422 -2.7188,0.8125 -3.9375,1.4688 v -5.8281 c 1.6445,-0.40625 3.2891,-0.70703 4.9375,-0.90625 1.6562,-0.20703 3.3047,-0.3125 4.9531,-0.3125 4.3203,0 7.4375,0.85547 9.3438,2.5625 1.9141,1.6992 2.875,4.4609 2.875,8.2812 z"
         id="path17758" />
    </symbol>
    <symbol
       id="i"
       overflow="visible">
      <path
         d="m 12.031,-30.719 v 6.7969 h 7.875 v 5.4688 h -7.875 v 10.141 c 0,1.1172 0.21875,1.8711 0.65625,2.2656 0.4375,0.38672 1.3125,0.57812 2.625,0.57812 h 3.9375 v 5.4688 h -6.5625 c -3.0234,0 -5.1641,-0.62891 -6.4219,-1.8906 -1.2617,-1.2578 -1.8906,-3.3984 -1.8906,-6.4219 v -10.141 h -3.7969 v -5.4688 h 3.7969 v -6.7969 z"
         id="path17761" />
    </symbol>
    <symbol
       id="h"
       overflow="visible">
      <path
         d="m 19.953,-20.422 v -12.812 h 7.6875 V 0 H 19.953 v -3.4531 c -1.0547,1.4062 -2.2148,2.4375 -3.4844,3.0938 -1.2734,0.65625 -2.7422,0.98438 -4.4062,0.98438 -2.9492,0 -5.3711,-1.1719 -7.2656,-3.5156 -1.8867,-2.3438 -2.8281,-5.3594 -2.8281,-9.0469 0,-3.6875 0.94141,-6.7031 2.8281,-9.0469 1.8945,-2.3438 4.3164,-3.5156 7.2656,-3.5156 1.6562,0 3.1172,0.33594 4.3906,1 1.2812,0.65625 2.4453,1.6836 3.5,3.0781 z m -5.0469,15.484 c 1.6445,0 2.8945,-0.59766 3.75,-1.7969 0.86328,-1.1953 1.2969,-2.9297 1.2969,-5.2031 0,-2.2812 -0.43359,-4.0195 -1.2969,-5.2188 -0.85547,-1.1953 -2.1055,-1.7969 -3.75,-1.7969 -1.625,0 -2.8711,0.60156 -3.7344,1.7969 -0.85547,1.1992 -1.2812,2.9375 -1.2812,5.2188 0,2.2734 0.42578,4.0078 1.2812,5.2031 0.86328,1.1992 2.1094,1.7969 3.7344,1.7969 z"
         id="path17764" />
    </symbol>
    <symbol
       id="g"
       overflow="visible">
      <path
         d="m 16.406,-4.9375 c 1.6328,0 2.8828,-0.59766 3.75,-1.7969 0.86328,-1.1953 1.2969,-2.9297 1.2969,-5.2031 0,-2.2812 -0.43359,-4.0195 -1.2969,-5.2188 -0.86719,-1.1953 -2.1172,-1.7969 -3.75,-1.7969 -1.6367,0 -2.8906,0.60547 -3.7656,1.8125 -0.875,1.1992 -1.3125,2.9336 -1.3125,5.2031 0,2.2617 0.4375,3.9961 1.3125,5.2031 0.875,1.1992 2.1289,1.7969 3.7656,1.7969 z m -5.0781,-15.484 c 1.0508,-1.3945 2.2188,-2.4219 3.5,-3.0781 1.2812,-0.66406 2.7539,-1 4.4219,-1 2.9453,0 5.3672,1.1719 7.2656,3.5156 1.8945,2.3438 2.8438,5.3594 2.8438,9.0469 0,3.6875 -0.94922,6.7031 -2.8438,9.0469 -1.8984,2.3438 -4.3203,3.5156 -7.2656,3.5156 -1.668,0 -3.1406,-0.33594 -4.4219,-1 -1.2813,-0.66406 -2.4492,-1.6914 -3.5,-3.0781 V 4e-4 H 3.6717 v -33.234 h 7.6562 z"
         id="path17767" />
    </symbol>
    <symbol
       id="f"
       overflow="visible">
      <path
         d="m 0.53125,-23.922 h 7.6562 l 6.4219,16.234 5.4688,-16.234 h 7.6562 l -10.062,26.188 c -1.0117,2.6641 -2.1953,4.5234 -3.5469,5.5781 -1.3438,1.0625 -3.1211,1.5938 -5.3281,1.5938 H 4.37545 V 4.4223 h 2.3906 c 1.3008,0 2.2422,-0.21094 2.8281,-0.625 0.59375,-0.40625 1.0547,-1.1484 1.3906,-2.2188 l 0.20312,-0.65625 z"
         id="path17770" />
    </symbol>
    <symbol
       id="e"
       overflow="visible">
      <path
         d="m 0.21875,-31.891 h 29.391 v 6.2188 h -10.578 V -2e-4 h -8.2188 v -25.672 h -10.594 z"
         id="path17773" />
    </symbol>
    <symbol
       id="n"
       overflow="visible">
      <path
         d="m 3.6719,-23.922 h 7.6562 V 0 H 3.6719 Z m 0,-9.3125 h 7.6562 v 6.2344 H 3.6719 Z"
         id="path17776" />
    </symbol>
    <symbol
       id="d"
       overflow="visible">
      <path
         d="M 11.328,-3.4531 V 9.0939 H 3.6718 v -33.016 h 7.6562 v 3.5 c 1.0508,-1.3945 2.2188,-2.4219 3.5,-3.0781 1.2812,-0.66406 2.7539,-1 4.4219,-1 2.9453,0 5.3672,1.1719 7.2656,3.5156 1.8945,2.3438 2.8438,5.3594 2.8438,9.0469 0,3.6875 -0.94922,6.7031 -2.8438,9.0469 -1.8984,2.3438 -4.3203,3.5156 -7.2656,3.5156 -1.668,0 -3.1406,-0.33594 -4.4219,-1 -1.2813,-0.66406 -2.4492,-1.6914 -3.5,-3.0781 z m 5.0781,-15.5 c -1.6367,0 -2.8906,0.60547 -3.7656,1.8125 -0.875,1.1992 -1.3125,2.9336 -1.3125,5.2031 0,2.2617 0.4375,3.9961 1.3125,5.2031 0.875,1.1992 2.1289,1.7969 3.7656,1.7969 1.6328,0 2.8828,-0.59766 3.75,-1.7969 0.86328,-1.1953 1.2969,-2.9297 1.2969,-5.2031 0,-2.2812 -0.43359,-4.0195 -1.2969,-5.2188 -0.86719,-1.1953 -2.1172,-1.7969 -3.75,-1.7969 z"
         id="path17779" />
    </symbol>
    <symbol
       id="m"
       overflow="visible">
      <path
         d="m 1.5312,-23.922 h 7.4375 l 4.0156,16.484 4.0469,-16.484 h 6.375 l 4.0156,16.312 4.0469,-16.312 h 7.4375 L 32.5937,0 H 24.2499 L 20.203,-16.453 16.1874,0 H 7.8436 Z"
         id="path17782" />
    </symbol>
    <symbol
       id="l"
       overflow="visible">
      <path
         d="M 27.734,-14.562 V 0 h -7.7031 v -11.156 c 0,-2.0625 -0.04687,-3.4844 -0.14062,-4.2656 -0.08594,-0.78125 -0.24219,-1.3594 -0.46875,-1.7344 -0.30469,-0.5 -0.71094,-0.88281 -1.2188,-1.1562 -0.51172,-0.28125 -1.0938,-0.42188 -1.75,-0.42188 -1.5938,0 -2.8516,0.61719 -3.7656,1.8438 -0.90625,1.2305 -1.3594,2.9375 -1.3594,5.125 v 11.766 h -7.6562 v -23.922 h 7.6562 v 3.5 c 1.1445,-1.3945 2.3633,-2.4219 3.6562,-3.0781 1.3008,-0.66406 2.7383,-1 4.3125,-1 2.7578,0 4.8516,0.85156 6.2812,2.5469 1.4375,1.6875 2.1562,4.1523 2.1562,7.3906 z"
         id="path17785" />
    </symbol>
    <symbol
       id="k"
       overflow="visible">
      <path
         d="m 26.219,-30.891 v 6.75 c -1.7617,-0.78125 -3.4766,-1.3672 -5.1406,-1.7656 -1.668,-0.40625 -3.2422,-0.60938 -4.7188,-0.60938 -1.9609,0 -3.4141,0.27344 -4.3594,0.8125 -0.9375,0.54297 -1.4062,1.3867 -1.4062,2.5312 0,0.85547 0.31641,1.5234 0.95312,2 0.63281,0.46875 1.7852,0.875 3.4531,1.2188 l 3.5,0.70312 c 3.5391,0.71875 6.0625,1.8047 7.5625,3.25 1.5,1.4492 2.25,3.5117 2.25,6.1875 0,3.5234 -1.0469,6.1406 -3.1406,7.8594 -2.0859,1.7188 -5.2734,2.5781 -9.5625,2.5781 -2.0234,0 -4.0547,-0.19531 -6.0938,-0.57812 -2.0312,-0.38281 -4.0625,-0.95703 -6.0938,-1.7188 v -6.9375 c 2.0312,1.0859 3.9922,1.9023 5.8906,2.4531 1.9062,0.54297 3.7422,0.8125 5.5156,0.8125 1.7891,0 3.1602,-0.29688 4.1094,-0.89062 0.95703,-0.60156 1.4375,-1.457 1.4375,-2.5625 0,-1 -0.32422,-1.7695 -0.96875,-2.3125 -0.64844,-0.53906 -1.9375,-1.0234 -3.875,-1.4531 l -3.1875,-0.70312 c -3.1875,-0.6875 -5.5234,-1.7734 -7,-3.2656 -1.4688,-1.5 -2.2031,-3.5156 -2.2031,-6.0469 0,-3.1758 1.0234,-5.6172 3.0781,-7.3281 2.0508,-1.707 5,-2.5625 8.8438,-2.5625 1.75,0 3.5508,0.13281 5.4062,0.39062 1.8516,0.26172 3.7695,0.65625 5.75,1.1875 z"
         id="path17788" />
    </symbol>
    <symbol
       id="c"
       overflow="visible">
      <path
         d="m 15.062,-19.031 c -1.6992,0 -2.9961,0.60938 -3.8906,1.8281 -0.88672,1.2188 -1.3281,2.9766 -1.3281,5.2656 0,2.293 0.44141,4.0469 1.3281,5.2656 0.89453,1.2188 2.1914,1.8281 3.8906,1.8281 1.6641,0 2.9375,-0.60938 3.8125,-1.8281 0.88281,-1.2188 1.3281,-2.9727 1.3281,-5.2656 0,-2.2891 -0.44531,-4.0469 -1.3281,-5.2656 -0.875,-1.2188 -2.1484,-1.8281 -3.8125,-1.8281 z m 0,-5.4688 c 4.1133,0 7.3281,1.1094 9.6406,3.3281 2.3125,2.2187 3.4688,5.2969 3.4688,9.2344 0,3.9297 -1.1562,7.0078 -3.4688,9.2344 -2.3125,2.2188 -5.5273,3.3281 -9.6406,3.3281 -4.1367,0 -7.3711,-1.1094 -9.7031,-3.3281 -2.3242,-2.2266 -3.4844,-5.3047 -3.4844,-9.2344 0,-3.9375 1.1602,-7.0156 3.4844,-9.2344 2.332,-2.2188 5.5664,-3.3281 9.7031,-3.3281 z"
         id="path17791" />
    </symbol>
    <clipPath
       clipPathUnits="userSpaceOnUse"
       id="clipPath18332">
      <rect
         style="fill:#000000;fill-opacity:0;stroke:#000000;stroke-width:0"
         id="rect18334"
         width="821.61017"
         height="625.84741"
         x="-56.355934"
         y="-29.661018" />
    </clipPath>
  </defs>
  <g
     id="g17844"
     clip-path="url(#clipPath18332)"
     transform="translate(-35.151669,43.110612)">
    <path
       d="m 271.25,96.25 c 0,-4.832 -3.918,-8.75 -8.75,-8.75 -4.832,0 -8.75,3.918 -8.75,8.75 V 105 h -17.5 c -6.1641,0.0352 -12.203,1.7148 -17.5,4.8633 v -22.363 c 0,-4.832 -3.918,-8.75 -8.75,-8.75 -4.832,0 -8.75,3.918 -8.75,8.75 v 22.363 c -5.2969,-3.1484 -11.336,-4.8281 -17.5,-4.8633 h -17.5 v -8.75 c 0,-4.832 -3.918,-8.75 -8.75,-8.75 -4.832,0 -8.75,3.918 -8.75,8.75 v 17.5 c 0.0312,9.4961 3.1875,18.723 8.9766,26.25 h -0.22656 c -4.832,0 -8.75,3.918 -8.75,8.75 0.0156,11.598 4.6289,22.719 12.828,30.922 8.2031,8.1992 19.324,12.812 30.922,12.828 h 8.75 V 210 c 0,4.832 3.918,8.75 8.75,8.75 4.832,0 8.75,-3.918 8.75,-8.75 v -17.5 h 8.75 c 11.598,-0.0156 22.719,-4.6289 30.922,-12.828 8.1992,-8.2031 12.812,-19.324 12.828,-30.922 0,-2.3203 -0.92188,-4.5469 -2.5625,-6.1875 -1.64062,-1.6406 -3.8672,-2.5625 -6.1875,-2.5625 h -0.22656 c 5.7891,-7.5273 8.9453,-16.754 8.9766,-26.25 z m -35,26.25 h 16.004 c -1.8164,5.1133 -5.1719,9.543 -9.6016,12.676 -4.4336,3.1328 -9.7266,4.8164 -15.152,4.8242 h -8.75 c 0,-4.6406 1.8438,-9.0938 5.125,-12.375 3.2812,-3.2812 7.7344,-5.125 12.375,-5.125 z m -52.5,0 c 4.6406,0 9.0938,1.8438 12.375,5.125 3.2812,3.2812 5.125,7.7344 5.125,12.375 h -8.75 c -5.4258,-0.008 -10.719,-1.6914 -15.152,-4.8242 -4.4297,-3.1328 -7.7852,-7.5625 -9.6016,-12.676 z m -16.004,35 h 16.004 c 4.6406,0 9.0938,1.8438 12.375,5.125 3.2812,3.2812 5.125,7.7344 5.125,12.375 h -8.75 c -5.4258,-0.008 -10.719,-1.6914 -15.152,-4.8242 -4.4297,-3.1328 -7.7852,-7.5625 -9.6016,-12.676 z M 227.5,175 h -8.75 c 0,-4.6406 1.8438,-9.0938 5.125,-12.375 3.2812,-3.2812 7.7344,-5.125 12.375,-5.125 h 16.004 c -1.8164,5.1133 -5.1719,9.543 -9.6016,12.676 -4.4336,3.1328 -9.7266,4.8164 -15.152,4.8242 z"
       id="path17796" />
    <path
       d="m 560,192.5 c 0,-15.629 -8.3398,-30.074 -21.875,-37.887 -13.535,-7.8164 -30.215,-7.8164 -43.75,0 -13.535,7.8125 -21.875,22.258 -21.875,37.887 0.0469,7.4297 2.0117,14.719 5.7031,21.168 l -22.953,22.953 -55.668,-55.676 -6.1758,-6.1758 98.973,-99.02 68.059,68.059 v -0.004 c 1.6289,1.6914 3.8711,2.6523 6.2188,2.6719 2.3477,0.0195 4.6016,-0.90234 6.2617,-2.5625 1.6602,-1.6602 2.582,-3.9141 2.5625,-6.2617 -0.0195,-2.3476 -0.98047,-4.5898 -2.6719,-6.2188 l -12.371,-12.371 24.754,-24.753996 12.371,12.370996 c 3.4336,3.3164 8.8906,3.2695 12.266,-0.10547 3.3754,-3.37497 3.4258,-8.831996 0.10938,-12.265996 l -74.238,-74.238 0.004,0.0039 c -3.4336,-3.3164 -8.8945,-3.2695 -12.27,0.10547 -3.3755,3.37497 -3.4219,8.832 -0.10547,12.266 l 12.371,12.371 -24.762,24.746 -12.371,-12.371 c -3.418,-3.418 -8.957,-3.418 -12.371,0 L 374.82631,168.561 c -3.418,3.418 -3.418,8.957 0,12.375 l 6.1875,6.1875 -30.934,30.93 c -3.4141,3.418 -3.4141,8.9531 0,12.371 l 6.1875,6.1953 -24.754,24.746 c -3.418,3.418 -3.418,8.9531 0,12.371 l 24.754,24.754 c 3.418,3.418 8.9531,3.418 12.371,0 l 24.746,-24.754 6.1953,6.1875 c 3.418,3.4141 8.9531,3.4141 12.371,0 l 14,-14 c 3.418,-3.418 3.4219,-8.957 0.004,-12.379 -3.4141,-3.418 -8.957,-3.418 -12.375,-0.004 l -7.7773,7.7891 -37.129,-37.129 24.711,-24.699 55.684,55.684 c 3.418,3.418 8.957,3.418 12.375,0 l 28.203,-28.191 h -0.004 c 10.055,7.9648 23.148,11.008 35.684,8.2969 22.316,24.047 34.703,55.652 34.676,88.461 0.0156,35.648 -14.477,69.77 -40.145,94.512 -25.668,24.742 -60.297,37.973 -95.922,36.652 -35.625,-1.3242 -69.176,-17.086 -92.938,-43.664 h 36.504 c 9.2812,0 18.184,-3.6875 24.75,-10.25 6.5625,-6.5664 10.25,-15.469 10.25,-24.75 v -8.75 c 0,-2.3203 -0.92188,-4.5469 -2.5625,-6.1875 -1.64062,-1.6406 -3.8672,-2.5625 -6.1875,-2.5625 h -17.5 v -8.75 c -0.0156,-11.598 -4.6289,-22.719 -12.828,-30.922 -8.2031,-8.1992 -19.324,-12.812 -30.922,-12.828 h -70 c -11.598,0.0156 -22.719,4.6289 -30.922,12.828 -8.1992,8.2031 -12.812,19.324 -12.828,30.922 v 8.75 h -17.5 c -4.832,0 -8.75,3.918 -8.75,8.75 v 8.75 c 0,9.2812 3.6875,18.184 10.25,24.75 6.5664,6.5625 15.469,10.25 24.75,10.25 h 81.059 c 24.781,34.086 62.859,56.055 104.77,60.445 41.91,4.3906 83.715,-9.2109 115.02,-37.422 31.309,-28.211 49.168,-68.383 49.148,-110.52 0.0508,-35.238 -12.543,-69.324 -35.488,-96.066 4.7812,-3.5312 8.793,-7.9961 11.793,-13.125 26.629,30.133 41.285,68.98 41.195,109.19 0.0273,34.551 -10.719,68.25 -30.746,96.41 -20.023,28.156 -48.332,49.367 -80.977,60.68 -32.648,11.316 -68.008,12.168 -101.16,2.4414 -33.152,-9.7266 -62.449,-29.551 -83.809,-56.711 -1.4141,-1.8789 -3.5273,-3.1055 -5.8633,-3.4102 -2.332,-0.30078 -4.6875,0.34766 -6.5391,1.8047 -1.8477,1.4531 -3.0312,3.5938 -3.2852,5.9297 -0.25391,2.3398 0.44922,4.6836 1.9414,6.5 17.594,22.41 40.16,40.422 65.914,52.605 h -9.2227 c -6.9609,0 -13.641,2.7656 -18.562,7.6875 -4.921,4.9219 -7.6875,11.602 -7.6875,18.562 v 17.5 c 0,2.3203 0.92188,4.5469 2.5625,6.1875 1.64062,1.6406 3.8672,2.5625 6.1875,2.5625 h 61.25 c 4.832,0 8.75,-3.918 8.75,-8.75 0,-4.832 -3.918,-8.75 -8.75,-8.75 h -52.5 v -8.75 c 0,-4.832 3.918,-8.75 8.75,-8.75 h 175 c 2.3203,0 4.5469,0.92188 6.1875,2.5625 1.6406,1.64062 2.5625,3.8672 2.5625,6.1875 v 8.75 h -105 c -4.832,0 -8.75,3.918 -8.75,8.75 0,4.832 3.918,8.75 8.75,8.75 h 113.75 c 2.3203,0 4.5469,-0.92188 6.1875,-2.5625 1.6406,-1.64062 2.5625,-3.8672 2.5625,-6.1875 v -17.5 c 0,-6.9609 -2.7656,-13.641 -7.6875,-18.562 -4.9219,-4.921 -11.602,-7.6875 -18.562,-7.6875 h -9.7461 c 31.633,-14.781 58.402,-38.27 77.172,-67.711 18.773,-29.441 28.77,-63.621 28.824,-98.539 0.0977,-48.113 -18.883,-94.305 -52.781,-128.45 0.0625,-0.94531 0.28125,-1.8398 0.28125,-2.8008 z M 548.066,57.18 572.82,81.934 548.066,106.68 523.32,81.934 Z m -167.05,204.18 -18.559,18.566 -12.383,-12.383 18.566,-18.559 z m -144.76,88.637 c 0.0234,-5.4102 1.7148,-10.68 4.8477,-15.09 3.1328,-4.4102 7.5508,-7.7461 12.652,-9.5508 v 7.1406 c 0,4.832 3.918,8.75 8.75,8.75 4.832,0 8.75,-3.918 8.75,-8.75 v -8.75 h 17.5 v 8.75 c 0,4.832 3.918,8.75 8.75,8.75 4.832,0 8.75,-3.918 8.75,-8.75 v -8.75 h 17.5 v 8.75 c 0,4.832 3.918,8.75 8.75,8.75 4.832,0 8.75,-3.918 8.75,-8.75 v -7.1406 c 5.1016,1.8047 9.5195,5.1406 12.652,9.5508 3.1328,4.4102 4.8242,9.6797 4.8477,15.09 v 8.75 h -122.5 z m -26.25,26.25 h 175 c 0,4.6406 -1.8438,9.0938 -5.125,12.375 -3.2812,3.2812 -7.7344,5.125 -12.375,5.125 h -140 c -4.6406,0 -9.0938,-1.8438 -12.375,-5.125 -3.2812,-3.2812 -5.125,-7.7344 -5.125,-12.375 z m 280,-183.75 c 0,-6.9609 2.7656,-13.641 7.6875,-18.562 4.9219,-4.921 11.602,-7.6875 18.562,-7.6875 6.96,0 13.641,2.7656 18.562,7.6875 4.921,4.9219 7.6875,11.602 7.6875,18.562 0,6.96 -2.7656,13.641 -7.6875,18.562 -4.9219,4.921 -11.602,7.6875 -18.562,7.6875 -6.96,0 -13.641,-2.7656 -18.562,-7.6875 -4.921,-4.9219 -7.6875,-11.602 -7.6875,-18.562 z"
       id="path17798" />
    <path
       d="m 525,192.5 c 0,4.832 -3.918,8.75 -8.75,8.75 -4.832,0 -8.75,-3.918 -8.75,-8.75 0,-4.832 3.918,-8.75 8.75,-8.75 4.832,0 8.75,3.918 8.75,8.75"
       id="path17800" />
    <path
       d="m 243.52,257.81 49.473,29.688 v 0.004 c 3.0664,1.8398 6.9414,1.6328 9.7891,-0.52344 2.8516,-2.1562 4.1016,-5.8281 3.1641,-9.2773 l -12.996,-47.574 c 22.184,-20.344 36.074,-48.156 39.016,-78.109 2.9375,-29.953 -5.2852,-59.938004 -23.09,-84.203004 -2.8672,-3.8555 -8.3086,-4.6758 -12.188,-1.8398 -3.8789,2.8398 -4.7422,8.2734 -1.9336,12.172 15.75,21.465 22.734,48.125004 19.527,74.555004 -3.207,26.434 -16.363,50.648 -36.793,67.723 -2.6133,2.1953 -3.707,5.7109 -2.8086,9.0039 l 8.6875,31.867 -34.125,-20.484 c -2.1484,-1.3086 -4.7617,-1.6289 -7.1641,-0.875 -34.781,11.227 -72.898,3.5586 -100.64,-20.242 -27.734,-23.805 -41.098,-60.316 -35.277,-96.398 5.8164,-36.082004 29.98,-66.543004 63.793,-80.422004 33.812,-13.875 72.406,-9.1719 101.9,12.422 3.8984,2.8047 9.332,1.9414 12.172,-1.9375 2.8359,-3.8789 2.0156,-9.3203 -1.8398,-12.188 -34.105,-24.918 -78.645,-30.5 -117.84,-14.77 -39.199,15.73 -67.527,50.551 -74.949,92.133004 -7.422,41.582 7.1094,84.051 38.449,112.37 31.336,28.316 75.059,38.488 115.68,26.906 z"
       id="path17802" />
    <use
       x="70"
       y="691.25"
       xlink:href="#o"
       id="use17804" />
    <use
       x="102.10938"
       y="691.25"
       xlink:href="#j"
       id="use17806" />
    <use
       x="123.68359"
       y="691.25"
       xlink:href="#b"
       id="use17808" />
    <use
       x="153.35547"
       y="691.25"
       xlink:href="#a"
       id="use17810" />
    <use
       x="182.87891"
       y="691.25"
       xlink:href="#i"
       id="use17812" />
    <use
       x="203.79297"
       y="691.25"
       xlink:href="#b"
       id="use17814" />
    <use
       x="233.46484"
       y="691.25"
       xlink:href="#h"
       id="use17816" />
    <use
       x="280.01172"
       y="691.25"
       xlink:href="#g"
       id="use17818" />
    <use
       x="311.32812"
       y="691.25"
       xlink:href="#f"
       id="use17820" />
    <use
       x="355.07812"
       y="691.25"
       xlink:href="#e"
       id="use17822" />
    <use
       x="384.92188"
       y="691.25"
       xlink:href="#n"
       id="use17824" />
    <use
       x="399.91797"
       y="691.25"
       xlink:href="#d"
       id="use17826" />
    <use
       x="431.23828"
       y="691.25"
       xlink:href="#d"
       id="use17828" />
    <use
       x="462.55469"
       y="691.25"
       xlink:href="#a"
       id="use17830" />
    <use
       x="492.07812"
       y="691.25"
       xlink:href="#m"
       id="use17832" />
    <use
       x="532.49219"
       y="691.25"
       xlink:href="#a"
       id="use17834" />
    <use
       x="562.01562"
       y="691.25"
       xlink:href="#l"
       id="use17836" />
    <use
       x="608.39453"
       y="691.25"
       xlink:href="#k"
       id="use17838" />
    <use
       x="639.90234"
       y="691.25"
       xlink:href="#c"
       id="use17840" />
    <use
       x="669.96094"
       y="691.25"
       xlink:href="#c"
       id="use17842" />
  </g>
</svg>
