<?xml version="1.0" encoding="UTF-8"?>
<svg width="10.439mm" height="8.2123mm" version="1.1" viewBox="0 0 10.439 8.2123" xmlns="http://www.w3.org/2000/svg" xmlns:xlink="http://www.w3.org/1999/xlink">
<defs>
<linearGradient id="a" x1="63.334" x2="73.773" y1="36.347" y2="36.347" gradientTransform="translate(7.4868 4.7643)" gradientUnits="userSpaceOnUse">
<stop stop-color="#56d4d2" offset="0"/>
<stop stop-color="#9d4cff" stop-opacity=".79263" offset="1"/>
</linearGradient>
</defs>
<g transform="translate(-70.821 -37.005)">
<path d="m80.7 37.005c-0.04314 7.54e-4 -0.0869 0.01411-0.12506 0.04082l-4.3248 3.0288c-0.02959 0.02072-0.05266 0.04686-0.06873 0.07648h-5.1335c-0.1242 0-0.22428 0.10007-0.22428 0.22428s0.10007 0.22428 0.22428 0.22428h5.2875l4.5713 3.2014c0.10174 0.07124 0.24089 0.04645 0.31212-0.05529 0.07124-0.10174 0.04696-0.24089-0.05478-0.31212l-4.4654-3.1264 4.1336-2.8939c0.10174-0.07124 0.12602-0.21038 0.05478-0.31212-0.04452-0.06359-0.11517-0.09737-0.18707-0.09612zm-9.6552 4.9098c-0.1242 0-0.22428 0.10007-0.22428 0.22428s0.10007 0.22428 0.22428 0.22428h4.7997l4.0173 2.8133c0.10174 0.07124 0.24089 0.04645 0.31213-0.05529 0.07124-0.10174 0.04696-0.24089-0.05478-0.31213l-4.0251-2.8184c-0.04102-0.04642-0.10085-0.07596-0.16795-0.07596z" fill="url(#a)" stroke-width=".18602"/>
</g>
</svg>
